<svg width="352" height="297" viewBox="0 0 352 297" fill="none" xmlns="http://www.w3.org/2000/svg">
<g clip-path="url(#clip0_1_11)">
<path d="M47.9565 255.25L176 45.7932L304.043 255.25H47.9565Z" stroke="#00C2FF" stroke-width="5"/>
<circle cx="176.5" cy="41.5" r="41.5" fill="#7875FF"/>
<circle cx="310.5" cy="255.5" r="41.5" fill="#DB75FF"/>
<circle cx="41.5" cy="255.5" r="41.5" fill="#00FFFF"/>
<path d="M290.114 264V246.545H296.011C297.381 246.545 298.5 246.793 299.369 247.287C300.244 247.776 300.892 248.438 301.312 249.273C301.733 250.108 301.943 251.04 301.943 252.068C301.943 253.097 301.733 254.031 301.312 254.872C300.898 255.713 300.256 256.384 299.386 256.884C298.517 257.378 297.403 257.625 296.045 257.625H291.818V255.75H295.977C296.915 255.75 297.668 255.588 298.236 255.264C298.804 254.94 299.216 254.503 299.472 253.952C299.733 253.395 299.864 252.767 299.864 252.068C299.864 251.369 299.733 250.744 299.472 250.193C299.216 249.642 298.801 249.21 298.227 248.898C297.653 248.58 296.892 248.42 295.943 248.42H292.227V264H290.114ZM305.041 264V262.466L310.803 256.159C311.479 255.42 312.036 254.778 312.473 254.233C312.911 253.682 313.234 253.165 313.445 252.682C313.661 252.193 313.768 251.682 313.768 251.148C313.768 250.534 313.621 250.003 313.325 249.554C313.036 249.105 312.638 248.759 312.132 248.514C311.626 248.27 311.058 248.148 310.428 248.148C309.757 248.148 309.172 248.287 308.672 248.565C308.178 248.838 307.794 249.222 307.521 249.716C307.254 250.21 307.121 250.79 307.121 251.455H305.109C305.109 250.432 305.345 249.534 305.817 248.761C306.288 247.989 306.93 247.386 307.743 246.955C308.561 246.523 309.479 246.307 310.496 246.307C311.518 246.307 312.425 246.523 313.214 246.955C314.004 247.386 314.624 247.969 315.072 248.702C315.521 249.435 315.746 250.25 315.746 251.148C315.746 251.79 315.629 252.418 315.396 253.031C315.169 253.639 314.771 254.318 314.203 255.068C313.641 255.812 312.859 256.722 311.859 257.795L307.939 261.989V262.125H316.053V264H305.041ZM319.879 264V246.545H325.777C327.146 246.545 328.266 246.793 329.135 247.287C330.01 247.776 330.658 248.438 331.078 249.273C331.499 250.108 331.709 251.04 331.709 252.068C331.709 253.097 331.499 254.031 331.078 254.872C330.663 255.713 330.021 256.384 329.152 256.884C328.283 257.378 327.169 257.625 325.811 257.625H321.584V255.75H325.743C326.68 255.75 327.433 255.588 328.001 255.264C328.57 254.94 328.982 254.503 329.237 253.952C329.499 253.395 329.629 252.767 329.629 252.068C329.629 251.369 329.499 250.744 329.237 250.193C328.982 249.642 328.567 249.21 327.993 248.898C327.419 248.58 326.658 248.42 325.709 248.42H321.993V264H319.879Z" fill="white"/>
<path d="M18.055 264V246.545H23.9528C25.3221 246.545 26.4414 246.793 27.3107 247.287C28.1857 247.776 28.8335 248.438 29.2539 249.273C29.6744 250.108 29.8846 251.04 29.8846 252.068C29.8846 253.097 29.6744 254.031 29.2539 254.872C28.8391 255.713 28.1971 256.384 27.3278 256.884C26.4585 257.378 25.3448 257.625 23.9869 257.625H19.7596V255.75H23.9187C24.8562 255.75 25.609 255.588 26.1772 255.264C26.7454 254.94 27.1573 254.503 27.413 253.952C27.6744 253.395 27.805 252.767 27.805 252.068C27.805 251.369 27.6744 250.744 27.413 250.193C27.1573 249.642 26.7425 249.21 26.1687 248.898C25.5948 248.58 24.8335 248.42 23.8846 248.42H20.1687V264H18.055ZM32.9826 264V262.466L38.744 256.159C39.4201 255.42 39.9769 254.778 40.4144 254.233C40.8519 253.682 41.1758 253.165 41.386 252.682C41.6019 252.193 41.7099 251.682 41.7099 251.148C41.7099 250.534 41.5621 250.003 41.2667 249.554C40.9769 249.105 40.5792 248.759 40.0735 248.514C39.5678 248.27 38.9996 248.148 38.369 248.148C37.6985 248.148 37.1133 248.287 36.6133 248.565C36.119 248.838 35.7354 249.222 35.4627 249.716C35.1957 250.21 35.0621 250.79 35.0621 251.455H33.0508C33.0508 250.432 33.2866 249.534 33.7582 248.761C34.2298 247.989 34.8718 247.386 35.6843 246.955C36.5025 246.523 37.4201 246.307 38.4371 246.307C39.4599 246.307 40.3661 246.523 41.1559 246.955C41.9457 247.386 42.565 247.969 43.0138 248.702C43.4627 249.435 43.6871 250.25 43.6871 251.148C43.6871 251.79 43.5707 252.418 43.3377 253.031C43.1104 253.639 42.7127 254.318 42.1445 255.068C41.582 255.812 40.8008 256.722 39.8008 257.795L35.8803 261.989V262.125H43.994V264H32.9826ZM47.8207 246.545H50.3434L56.2752 261.034H56.4798L62.4116 246.545H64.9343V264H62.957V250.739H62.7866L57.332 264H55.4229L49.9684 250.739H49.7979V264H47.8207V246.545Z" fill="white"/>
<path d="M149.496 32.5455H152.019L157.951 47.0341H158.156L164.087 32.5455H166.61V50H164.633V36.7386H164.462L159.008 50H157.099L151.644 36.7386H151.474V50H149.496V32.5455ZM170.541 50V48.4659L176.303 42.1591C176.979 41.4205 177.536 40.7784 177.973 40.233C178.411 39.6818 178.734 39.1648 178.945 38.6818C179.161 38.1932 179.268 37.6818 179.268 37.1477C179.268 36.5341 179.121 36.0028 178.825 35.554C178.536 35.1051 178.138 34.7585 177.632 34.5142C177.126 34.2699 176.558 34.1477 175.928 34.1477C175.257 34.1477 174.672 34.2869 174.172 34.5653C173.678 34.8381 173.294 35.2216 173.021 35.7159C172.754 36.2102 172.621 36.7898 172.621 37.4545H170.609C170.609 36.4318 170.845 35.5341 171.317 34.7614C171.788 33.9886 172.43 33.3864 173.243 32.9545C174.061 32.5227 174.979 32.3068 175.996 32.3068C177.018 32.3068 177.925 32.5227 178.714 32.9545C179.504 33.3864 180.124 33.9687 180.572 34.7017C181.021 35.4347 181.246 36.25 181.246 37.1477C181.246 37.7898 181.129 38.4176 180.896 39.0312C180.669 39.6392 180.271 40.3182 179.703 41.0682C179.141 41.8125 178.359 42.7216 177.359 43.7955L173.439 47.9886V48.125H181.553V50H170.541ZM185.379 32.5455H187.902L193.834 47.0341H194.038L199.97 32.5455H202.493V50H200.516V36.7386H200.345L194.891 50H192.982L187.527 36.7386H187.357V50H185.379V32.5455Z" fill="white"/>
</g>
<defs>
<clipPath id="clip0_1_11">
<rect width="352" height="297" fill="white"/>
</clipPath>
</defs>
</svg>
